<svg aria-hidden="true" style="position: absolute; width: 0; height: 0; overflow: hidden;" version="1.1" xmlns="http://www.w3.org/2000/svg" xmlns:xlink="http://www.w3.org/1999/xlink">
<defs>
<symbol id="icon-check-on" viewBox="0 0 34 32">
<path fill="#fff" style="fill: var(--color1, #fff)" d="M13.858 22l-0.292 0.308 0.292 0.283 0.292-0.283zM8.292 16.692l0.3-0.308-0.3-0.283-0.292 0.283zM6.4 18.483l-0.292-0.308-0.325 0.308 0.325 0.308zM13.858 25.6l-0.292 0.308 0.292 0.283 0.292-0.283zM29.867 10.325l0.292 0.308 0.325-0.308-0.325-0.308zM27.983 8.533l0.3-0.308-0.3-0.283-0.292 0.283zM14.15 21.692l-5.558-5.308-0.592 0.617 5.567 5.308zM8 16.383l-1.892 1.792 0.583 0.617 1.9-1.792zM6.108 18.792l7.458 7.117 0.583-0.617-7.458-7.117zM14.15 25.908l16.008-15.275-0.583-0.617-16.008 15.275zM30.158 10.017l-1.875-1.792-0.592 0.617 1.883 1.792zM27.692 8.225l-14.125 13.467 0.583 0.617 14.133-13.467z"></path>
<path fill="#fff" style="fill: var(--color1, #fff)" d="M13.858 22l-5.567-5.308-1.892 1.792 7.458 7.117 16.008-15.275-1.883-1.792z"></path>
</symbol>
</defs>
</svg>
